<?xml version="1.0" standalone="no"?>
<!DOCTYPE svg PUBLIC "-//W3C//DTD SVG 20010904//EN"
 "http://www.w3.org/TR/2001/REC-SVG-20010904/DTD/svg10.dtd">
<svg version="1.0" xmlns="http://www.w3.org/2000/svg"
 width="379.000000pt" height="658.000000pt" viewBox="0 0 379.000000 658.000000"
 preserveAspectRatio="xMidYMid meet">

<g transform="translate(0.000000,658.000000) scale(0.100000,-0.100000)"
fill="#000000" stroke="none">
<path d="M1475 5519 c-22 -4 -64 -8 -94 -8 -54 -1 -56 -2 -120 -68 -87 -90
-117 -137 -141 -227 -23 -88 -24 -97 -6 -73 10 12 30 19 63 21 35 2 63 13 104
39 44 28 65 35 103 35 26 -1 49 -5 52 -10 3 -4 0 -8 -7 -8 -7 0 -10 -3 -7 -6
8 -7 45 12 72 37 25 23 35 16 13 -9 -16 -18 -23 -42 -12 -42 3 0 14 5 25 10
11 6 29 15 40 20 27 14 33 13 27 -5 -4 -8 -2 -17 3 -20 6 -4 10 3 10 14 0 17
6 21 30 21 34 0 37 -5 15 -26 -8 -9 -15 -28 -15 -44 0 -16 -4 -40 -9 -53 -11
-29 -65 -87 -81 -87 -6 0 -10 -6 -9 -12 4 -33 -4 -51 -37 -87 l-35 -40 28 2
c15 1 31 7 35 12 4 6 8 2 8 -7 0 -30 28 -20 98 33 61 46 119 77 286 154 33 15
92 32 132 37 68 9 74 8 110 -15 35 -22 113 -100 146 -146 34 -46 40 -13 23
116 -9 61 -8 68 4 68 5 0 13 4 18 9 4 5 3 6 -4 2 -7 -4 -11 0 -11 11 4 68
-188 234 -343 298 -116 47 -212 65 -349 64 -69 -1 -143 -5 -165 -10z"/>
<path d="M957 4892 c-23 -56 -32 -112 -18 -112 6 0 11 8 11 18 0 10 6 42 14
72 17 66 14 75 -7 22z"/>
<path d="M1083 4570 c0 -41 2 -58 4 -37 2 20 2 54 0 75 -2 20 -4 3 -4 -38z"/>
<path d="M1270 4597 c-45 -78 -71 -150 -86 -242 -2 -11 -6 -31 -10 -45 -9 -37
48 84 91 190 20 50 34 97 32 105 -3 7 0 18 6 24 6 6 7 11 2 11 -6 0 -21 -19
-35 -43z"/>
<path d="M1566 4631 c-3 -5 16 -18 43 -30 56 -24 147 -38 136 -21 -3 5 -11 10
-16 10 -6 0 -27 11 -47 25 -37 25 -105 34 -116 16z"/>
<path d="M2300 4517 c0 -19 -15 -24 -90 -33 -43 -5 -63 -12 -70 -25 -16 -28
-14 -29 58 -29 39 0 79 -6 95 -14 l27 -15 0 59 c0 32 -4 62 -10 65 -5 3 -10 0
-10 -8z"/>
<path d="M1481 4474 c-24 -7 -50 -19 -58 -25 -12 -10 -10 -15 14 -30 15 -10
62 -27 103 -39 104 -29 109 -30 105 -17 -3 7 2 20 9 30 11 15 19 16 34 8 17
-9 19 -7 14 14 -9 51 -137 85 -221 59z"/>
<path d="M1705 4371 c-3 -6 -16 -11 -28 -12 -15 0 -10 -5 17 -15 46 -16 66 -6
37 20 -12 11 -21 14 -26 7z"/>
<path d="M2086 4337 c-26 -7 -36 -14 -36 -28 0 -15 -5 -17 -30 -12 -29 5 -45
-13 -17 -21 32 -10 155 -38 181 -41 43 -6 66 -15 66 -26 0 -5 11 -9 25 -9 17
0 29 -7 35 -22 6 -17 9 -6 9 45 1 45 -3 66 -9 62 -6 -4 -25 4 -43 17 -61 46
-101 53 -181 35z m124 -63 c0 -8 -9 -14 -20 -14 -22 0 -23 1 -14 24 7 18 34
10 34 -10z"/>
<path d="M2311 4134 c0 -11 3 -14 6 -6 3 7 2 16 -1 19 -3 4 -6 -2 -5 -13z"/>
<path d="M2311 4074 c-1 -12 -12 -58 -24 -103 -13 -44 -23 -81 -21 -81 1 0 11
16 22 35 30 49 41 98 32 137 -5 21 -8 25 -9 12z"/>
<path d="M1955 4049 c-5 -13 -2 -25 6 -30 19 -11 28 -2 22 21 -8 30 -21 33
-28 9z"/>
<path d="M1491 3879 c27 -51 91 -109 128 -114 78 -13 176 -37 186 -45 26 -22
91 3 131 49 l23 26 -22 7 c-31 9 -158 8 -182 -1 -21 -8 -60 4 -83 26 -7 7 -27
16 -45 21 -18 6 -56 19 -85 31 -65 26 -65 26 -51 0z"/>
<path d="M2225 3838 c-16 -24 -42 -57 -59 -73 -50 -50 -64 -74 -17 -30 47 44
116 133 109 141 -3 2 -18 -15 -33 -38z"/>
<path d="M1172 3805 c0 -16 2 -22 5 -12 2 9 2 23 0 30 -3 6 -5 -1 -5 -18z"/>
<path d="M701 3734 c0 -11 3 -14 6 -6 3 7 2 16 -1 19 -3 4 -6 -2 -5 -13z"/>
<path d="M2600 3740 c0 -6 15 -102 34 -213 19 -111 40 -240 46 -287 7 -47 23
-139 36 -205 13 -66 26 -156 28 -200 19 -324 44 -561 91 -860 50 -310 59 -451
45 -701 -6 -115 -18 -274 -26 -354 -9 -80 -20 -188 -24 -240 -14 -168 -65
-411 -95 -454 -10 -13 -15 -15 -15 -7 0 8 -2 12 -5 9 -4 -4 -34 -195 -35 -220
0 -5 230 -8 511 -8 l511 0 44 32 44 31 0 79 c0 76 -2 82 -59 196 -33 64 -79
168 -102 231 l-42 114 55 51 c30 28 61 59 68 69 36 49 29 318 -15 547 -13 69
-27 163 -30 210 -3 47 -15 150 -25 230 -48 358 -62 454 -67 463 -4 6 -43 7
-98 3 -114 -8 -120 -3 -117 92 1 36 4 67 7 71 3 3 42 4 86 2 74 -2 80 -1 75
16 -2 10 -14 59 -26 108 -11 50 -33 133 -49 185 -16 52 -48 165 -71 250 -44
164 -91 290 -116 311 -9 7 -31 43 -49 81 -45 90 -77 131 -145 183 -80 62 -170
108 -285 148 -117 41 -185 54 -185 37z m230 -830 c0 -5 -2 -10 -4 -10 -3 0 -8
5 -11 10 -3 6 -1 10 4 10 6 0 11 -4 11 -10z m20 -55 c0 -5 -5 -3 -10 5 -5 8
-10 20 -10 25 0 6 5 3 10 -5 5 -8 10 -19 10 -25z m684 -756 c-6 -37 8 -56 19
-26 3 6 6 -8 6 -33 0 -30 -6 -53 -19 -70 -11 -14 -20 -21 -20 -16 0 5 -8 2
-17 -5 -16 -13 -17 -12 -5 3 7 9 12 25 10 35 -2 10 2 17 8 16 19 -4 23 45 6
59 -13 11 -15 10 -10 -2 3 -9 -5 -23 -21 -35 l-26 -20 17 26 c21 33 36 105 19
95 -6 -4 -11 -20 -11 -35 0 -15 -9 -36 -20 -46 -12 -11 -20 -30 -20 -49 1 -28
2 -29 14 -13 13 17 14 16 19 -2 3 -14 1 -18 -9 -14 -9 3 -14 -2 -15 -13 0 -15
-2 -15 -6 -4 -3 8 -11 18 -17 22 -21 14 -23 -37 -3 -93 23 -65 18 -120 -9 -98
-26 21 -37 50 -25 62 16 16 14 47 -3 41 -20 -8 -27 24 -16 70 12 54 44 94 88
112 1 1 5 11 7 24 2 12 12 33 20 47 24 36 47 14 39 -38z m22 -283 c-1 -16 -6
-31 -13 -33 -19 -7 -27 44 -12 79 13 31 13 31 19 7 4 -13 6 -37 6 -53z m-6
-76 c0 -5 -2 -10 -4 -10 -3 0 -8 5 -11 10 -3 6 -1 10 4 10 6 0 11 -4 11 -10z"/>
<path d="M1180 3713 c0 -4 7 -25 15 -48 13 -34 20 -40 45 -40 16 -1 26 3 24 7
-3 5 -10 5 -16 2 -7 -5 -9 -2 -5 8 5 15 -8 33 -48 66 -8 7 -15 9 -15 5z"/>
<path d="M697 3689 c4 -13 8 -18 11 -10 2 7 -1 18 -6 23 -8 8 -9 4 -5 -13z"/>
<path d="M676 3625 c-4 -14 -11 -25 -17 -25 -6 0 -8 -8 -4 -19 4 -12 0 -21
-11 -25 -11 -4 -15 -14 -11 -31 3 -17 -1 -29 -12 -35 -12 -6 -16 -23 -15 -72
1 -69 13 -150 24 -158 9 -6 40 -131 41 -167 4 -73 17 114 24 323 5 155 4 234
-3 234 -5 0 -13 -11 -16 -25z"/>
<path d="M2102 3615 c-7 -8 -9 -15 -4 -15 5 0 15 7 22 15 16 19 -1 19 -18 0z"/>
<path d="M1879 3507 c-48 -23 -119 -77 -119 -90 0 -4 10 -2 23 5 12 6 27 13
32 14 33 6 120 61 121 77 2 21 0 21 -57 -6z"/>
<path d="M475 3170 c-49 -32 -103 -62 -120 -66 -95 -21 -212 -144 -297 -312
l-53 -104 -3 -280 c-2 -224 0 -289 12 -327 8 -25 31 -107 51 -181 66 -244 128
-418 202 -564 18 -35 27 -76 34 -144 17 -177 108 -478 209 -687 l53 -110 -2
-197 -3 -198 551 0 c303 0 551 2 551 4 0 3 -41 93 -116 254 -19 40 -34 75 -34
78 0 3 -41 89 -91 192 -126 257 -198 417 -248 547 -24 61 -60 148 -81 195 -69
153 -237 554 -254 605 -8 28 -34 129 -55 225 -44 192 -69 282 -81 290 -15 10
-43 83 -43 111 0 16 7 37 16 47 17 19 23 62 9 62 -5 0 -17 -7 -28 -15 -28 -21
-47 -18 -75 11 -27 29 -33 22 61 74 49 27 46 18 42 139 l-2 53 -35 -6 c-19 -4
-35 -4 -35 0 0 4 17 37 37 75 l37 68 -21 43 c-12 24 -35 73 -52 111 -17 37
-34 67 -38 67 -5 0 -48 -27 -98 -60z m-15 -1852 c0 -21 0 -21 -15 -2 -11 14
-14 15 -15 4 0 -13 -1 -13 -11 0 -8 13 -10 12 -7 -4 2 -14 13 -20 46 -22 23
-2 42 1 42 6 0 6 -4 10 -10 10 -5 0 -10 5 -10 11 0 19 24 3 40 -27 10 -17 25
-29 39 -30 30 -2 85 -55 69 -66 -9 -6 -7 -8 7 -6 15 2 27 -10 48 -50 61 -112
39 -222 -54 -269 -38 -20 -49 -22 -76 -12 -22 7 -30 15 -26 25 3 9 -7 28 -23
45 -19 20 -23 28 -11 23 16 -6 18 -1 16 33 -2 33 -6 39 -27 41 -22 2 -24 -1
-18 -30 l6 -32 -25 34 c-15 19 -29 47 -32 63 -3 15 -9 27 -13 27 -14 0 -44 74
-31 78 6 2 11 8 11 14 0 6 -7 8 -15 4 -9 -3 -15 0 -15 10 0 8 5 12 10 9 6 -4
10 8 10 29 0 22 6 38 17 44 10 6 14 16 9 28 -6 16 -8 16 -22 2 -8 -8 -16 -31
-17 -51 -2 -46 -17 -49 -17 -3 0 51 33 86 81 86 33 0 39 -3 39 -22z"/>
<path d="M406 1211 c-5 -37 -1 -61 15 -105 12 -31 25 -56 29 -56 4 0 -3 30
-16 66 -23 62 -24 91 -3 79 5 -4 9 -16 9 -28 0 -24 31 -111 44 -124 9 -9 -3
81 -15 113 -4 12 -5 31 -2 42 4 17 1 20 -15 15 -11 -2 -23 0 -26 6 -4 6 0 11
10 11 13 0 14 3 4 15 -20 24 -27 18 -34 -34z"/>
<path d="M480 1231 c0 -6 11 -13 25 -17 23 -6 65 -46 92 -90 11 -17 12 -17 12
9 1 17 -4 27 -13 27 -8 0 -18 9 -21 20 -3 11 -13 20 -21 20 -8 0 -14 7 -14 15
0 8 -6 15 -14 15 -8 0 -21 3 -30 6 -9 3 -16 1 -16 -5z"/>
<path d="M480 1172 c0 -6 23 -29 50 -52 55 -46 69 -41 18 6 -49 45 -68 58 -68
46z"/>
<path d="M650 1151 c0 -5 6 -16 13 -23 6 -7 12 -19 12 -27 0 -8 6 -16 13 -19
9 -3 10 3 2 23 -11 29 -40 63 -40 46z"/>
<path d="M496 1100 c9 -44 7 -42 33 -32 21 8 21 8 -9 37 l-30 29 6 -34z"/>
<path d="M597 1080 c-3 -14 3 -26 21 -40 30 -24 46 -22 50 7 6 43 -60 74 -71
33z m49 -1 c10 -17 -13 -36 -27 -22 -12 12 -4 33 11 33 5 0 12 -5 16 -11z"/>
<path d="M534 1045 c-10 -8 -14 -14 -9 -14 6 0 19 6 29 14 11 8 15 15 10 15
-6 0 -19 -7 -30 -15z"/>
<path d="M680 1036 c0 -15 18 -31 26 -23 7 7 -7 37 -17 37 -5 0 -9 -6 -9 -14z"/>
<path d="M545 1020 c-3 -6 1 -7 9 -4 18 7 21 14 7 14 -6 0 -13 -4 -16 -10z"/>
<path d="M591 996 c-14 -14 -33 -26 -44 -26 -11 0 -17 -3 -13 -7 24 -24 91 11
84 43 -2 12 -9 10 -27 -10z"/>
<path d="M685 990 c3 -5 1 -10 -5 -10 -6 0 -8 -4 -5 -10 10 -17 25 -11 25 10
0 11 -5 20 -11 20 -5 0 -7 -4 -4 -10z"/>
<path d="M644 943 c-4 -10 -7 -21 -6 -25 1 -4 -5 -5 -13 -2 -8 4 -15 1 -15 -5
0 -6 -7 -11 -15 -11 -8 0 -15 -7 -15 -15 0 -11 7 -14 26 -11 35 7 54 24 47 43
-4 10 -2 14 4 10 7 -5 9 0 6 13 -7 24 -9 25 -19 3z"/>
<path d="M540 885 c0 -8 7 -15 15 -15 8 0 15 7 15 15 0 8 -7 15 -15 15 -8 0
-15 -7 -15 -15z"/>
<path d="M660 2940 c0 -5 5 -10 10 -10 6 0 10 5 10 10 0 6 -4 10 -10 10 -5 0
-10 -4 -10 -10z"/>
<path d="M2420 281 c0 -7 16 -74 37 -147 l36 -134 40 0 c30 0 38 3 34 14 -3 8
-9 31 -13 50 -7 38 -19 53 -29 36 -3 -5 -1 -10 4 -10 6 0 11 -5 11 -12 0 -14
-24 7 -26 23 -1 5 -2 14 -3 20 0 5 -5 7 -11 4 -5 -3 -10 -2 -10 4 0 16 -69
168 -70 152z"/>
<path d="M2087 87 c19 -86 20 -87 81 -87 l56 0 -34 35 c-19 19 -40 35 -46 35
-7 0 -17 6 -21 13 -4 8 -15 16 -24 20 -13 4 -16 1 -12 -16z"/>
</g>
</svg>
