<?xml version="1.0" standalone="no"?>
<!DOCTYPE svg PUBLIC "-//W3C//DTD SVG 20010904//EN"
 "http://www.w3.org/TR/2001/REC-SVG-20010904/DTD/svg10.dtd">
<svg version="1.0" xmlns="http://www.w3.org/2000/svg"
 width="432.000000pt" height="577.000000pt" viewBox="0 0 432.000000 577.000000"
 preserveAspectRatio="xMidYMid meet">

<g transform="translate(0.000000,577.000000) scale(0.100000,-0.100000)"
fill="#000000" stroke="none">
<path d="M2150 3691 c0 -5 -8 -12 -17 -15 -36 -14 -63 -31 -63 -41 0 -5 -20
-30 -44 -55 -24 -25 -57 -66 -73 -91 -15 -26 -48 -75 -72 -110 -147 -210 -218
-464 -209 -753 2 -78 2 -159 -2 -181 l-5 -40 -8 50 c-18 109 -18 298 -2 390
31 170 95 375 117 375 4 0 8 14 8 30 0 17 4 30 9 30 11 0 24 31 16 38 -7 8
-45 -29 -39 -39 2 -5 -4 -17 -15 -28 -11 -11 -36 -55 -56 -97 -79 -169 -114
-326 -116 -519 l-1 -120 -23 112 c-12 62 -26 145 -29 184 -7 72 -28 139 -43
139 -4 0 -17 -13 -28 -29 -10 -16 -24 -29 -30 -28 -5 1 -11 -10 -13 -25 -4
-32 -22 -38 -22 -7 0 11 -4 17 -10 14 -5 -3 -10 -18 -10 -33 0 -16 -8 -34 -20
-42 -15 -11 -20 -26 -21 -60 0 -36 -2 -41 -9 -23 -5 12 -15 25 -23 30 -35 21
-87 226 -93 361 -1 41 -5 76 -7 79 -17 17 -90 -174 -122 -317 -21 -96 -34
-417 -16 -406 7 4 23 0 38 -9 22 -15 25 -22 20 -60 -4 -45 18 -100 48 -118 8
-4 21 -28 30 -55 22 -61 48 -112 57 -112 3 0 10 -10 13 -22 10 -33 74 -137
107 -176 15 -18 28 -37 28 -42 0 -5 46 -56 103 -114 56 -57 139 -146 184 -198
179 -204 211 -232 293 -259 62 -20 95 -24 190 -24 72 0 123 5 135 13 18 10 16
11 -12 6 -77 -15 -143 22 -143 79 0 67 51 129 116 142 47 8 59 -4 42 -41 -17
-38 -32 -53 -65 -65 -15 -5 -36 -21 -46 -35 -18 -24 -18 -26 -1 -45 21 -23 79
-25 120 -5 15 8 31 13 36 10 4 -3 8 0 8 6 0 6 11 15 24 20 29 11 86 94 146
211 23 46 48 91 54 99 17 22 87 182 82 187 -1 1 -21 -4 -44 -13 -24 -8 -53
-12 -66 -8 -15 3 -34 -1 -50 -11 -24 -16 -29 -16 -78 0 -109 35 -185 98 -158
130 6 7 28 19 48 26 84 27 127 50 112 59 -11 7 -8 11 13 21 48 22 36 33 -45
44 -56 7 -62 20 -16 31 31 6 52 14 144 56 22 10 46 18 52 18 7 0 12 5 12 10 0
13 -26 13 -52 -1 -11 -6 -60 -11 -109 -10 -49 1 -121 -5 -161 -14 -39 -8 -73
-14 -74 -12 -16 17 3 88 22 80 8 -3 14 1 14 11 0 13 3 14 18 5 15 -9 31 -6 83
19 35 17 74 41 86 54 l22 24 -44 24 -44 24 -24 -22 c-41 -38 -147 -20 -131 23
3 7 1 16 -4 19 -12 7 -72 -83 -72 -108 0 -13 4 -15 18 -7 12 6 28 4 52 -7 l35
-15 -37 -10 c-21 -6 -38 -14 -38 -19 0 -4 -4 -8 -10 -8 -13 0 -70 -60 -71 -74
0 -6 -2 -19 -4 -29 -4 -23 13 -74 36 -108 24 -34 29 -102 9 -106 -25 -5 -121
99 -155 167 -24 49 -53 69 -100 70 -22 0 -46 4 -53 9 -17 10 -42 58 -42 81 0
9 -8 32 -17 51 -21 41 -25 161 -5 181 6 6 12 20 12 30 0 27 38 42 123 48 94 8
110 20 109 85 0 40 2 45 19 40 10 -3 28 -7 38 -10 10 -3 21 -14 24 -25 4 -17
9 -18 36 -9 17 6 31 16 31 23 0 15 -59 60 -67 52 -3 -3 2 -8 11 -12 9 -3 16
-10 16 -15 0 -5 -12 -4 -26 1 -14 6 -56 13 -94 16 -38 4 -67 10 -64 15 2 4
-18 5 -46 2 l-50 -6 0 32 c0 55 33 76 137 86 71 7 173 -8 173 -24 0 -5 15 -23
33 -42 33 -34 67 -41 67 -13 0 18 -24 44 -39 44 -6 0 -11 5 -11 11 0 5 -5 7
-10 4 -6 -4 -9 -3 -8 2 1 4 -5 22 -15 39 -14 28 -30 40 -62 50 -82 24 -123 32
-145 27 -22 -4 -32 0 -45 20 -13 21 -14 32 -6 64 6 21 11 50 11 64 0 15 7 32
15 39 8 7 15 22 15 35 0 104 162 166 355 134 65 -10 165 -58 165 -78 0 -4 24
-37 53 -74 30 -37 58 -84 63 -105 7 -28 15 -38 33 -40 38 -6 70 -32 92 -74 32
-62 22 -73 -63 -73 -40 0 -76 4 -80 9 -19 27 -121 -84 -103 -114 7 -11 96 -14
133 -4 22 6 30 38 12 49 -5 3 -10 15 -10 26 0 28 75 28 92 -1 7 -11 22 -20 33
-20 34 -1 91 -61 129 -138 50 -99 62 -183 49 -337 -6 -66 -9 -121 -8 -123 6
-7 44 141 50 193 6 62 -12 225 -28 253 -3 4 -8 30 -11 57 -12 84 -44 224 -56
240 -4 6 -26 68 -49 139 -72 223 -112 289 -280 457 -78 78 -107 100 -154 117
-59 22 -187 31 -187 13z m-550 -1256 c0 -5 -5 -3 -10 5 -5 8 -10 20 -10 25 0
6 5 3 10 -5 5 -8 10 -19 10 -25z"/>
<path d="M2210 2490 c-8 -5 -12 -12 -8 -15 10 -10 49 5 43 16 -8 11 -16 11
-35 -1z"/>
<path d="M1060 2403 c0 -95 78 -395 136 -520 7 -17 14 -37 14 -45 0 -16 -52
92 -69 144 -36 109 -39 5 -4 -132 15 -61 19 -67 55 -82 21 -9 38 -23 38 -32 0
-13 -6 -12 -35 5 -26 16 -39 18 -49 10 -7 -6 -16 -8 -19 -4 -4 3 -7 -3 -7 -14
0 -11 -7 -27 -16 -34 -13 -11 -15 -26 -10 -78 3 -36 10 -67 15 -70 5 -3 14
-25 21 -48 7 -24 17 -43 23 -43 5 0 7 -21 6 -47 -3 -41 3 -61 39 -130 23 -45
42 -88 42 -96 0 -7 14 -26 30 -42 17 -16 30 -35 30 -42 0 -20 52 -43 71 -30
19 12 60 -14 80 -50 7 -13 16 -23 21 -23 4 0 8 10 8 23 0 12 7 31 15 41 8 11
15 34 15 52 0 17 6 37 14 43 26 22 58 -40 96 -184 12 -44 31 -91 44 -105 12
-14 28 -37 36 -52 7 -16 18 -28 24 -28 24 0 56 32 56 55 0 13 11 36 24 52 21
24 26 26 50 15 14 -6 38 -34 53 -63 40 -76 68 -102 99 -95 14 4 58 28 97 55
107 72 188 123 227 144 19 11 65 40 103 65 37 25 70 43 72 40 6 -6 -165 -176
-220 -219 -65 -51 -255 -129 -313 -129 -10 0 -36 -9 -57 -20 -22 -11 -68 -30
-103 -42 -57 -19 -68 -20 -119 -9 -45 11 -65 22 -108 64 -72 72 -113 107 -125
107 -33 0 -127 48 -171 88 -51 45 -149 182 -149 207 0 6 -9 20 -20 30 -11 10
-20 22 -20 28 0 5 -12 28 -26 51 -14 22 -40 64 -58 93 -41 65 -92 121 -181
199 -80 70 -96 80 -157 93 -74 17 -158 -22 -158 -73 0 -11 -12 -32 -27 -48
-19 -20 -23 -29 -12 -32 8 -2 35 -12 60 -21 48 -17 158 -16 182 3 7 5 33 15
59 22 47 12 48 12 76 -16 16 -16 40 -36 53 -45 32 -21 57 -72 64 -130 3 -26
19 -66 34 -90 16 -24 36 -67 45 -95 9 -28 31 -66 47 -85 40 -44 65 -101 74
-169 10 -76 26 -110 71 -154 l39 -38 -35 18 c-19 9 -62 44 -96 76 -71 68 -130
177 -188 348 -68 201 -79 224 -137 273 -46 40 -110 57 -135 36 -9 -7 -25 -32
-36 -56 -24 -51 -79 -102 -119 -110 -29 -5 -51 -23 -30 -23 6 0 11 -4 11 -10
0 -5 -7 -10 -15 -10 -8 0 -15 7 -15 15 0 26 -42 36 -60 15 -8 -10 -29 -21 -46
-25 -18 -3 -39 -14 -49 -25 -16 -17 -16 -20 0 -47 l17 -28 -20 25 c-14 17 -19
33 -15 49 4 18 3 22 -7 16 -14 -9 -6 -94 12 -129 15 -29 27 -35 68 -37 27 -2
29 -3 10 -6 -26 -4 -39 -25 -64 -102 -8 -23 -31 -50 -71 -81 -66 -51 -74 -72
-55 -131 11 -33 10 -41 -8 -71 -32 -51 -81 -93 -144 -123 l-58 -26 0 -214 c0
-193 2 -214 18 -220 9 -4 159 -9 332 -11 173 -2 365 -7 426 -10 106 -6 113 -6
130 15 21 24 39 28 31 7 -8 -20 15 -22 243 -15 113 3 288 4 390 2 102 -3 216
-1 253 2 66 7 68 8 83 44 8 20 30 50 49 67 20 17 38 44 41 63 8 40 20 47 43
27 21 -19 30 -20 68 -5 26 9 26 11 10 21 -13 7 -22 7 -30 -1 -15 -15 -27 -14
-21 3 3 8 20 16 37 18 18 3 39 7 47 9 19 5 14 -33 -6 -44 -8 -4 -14 -15 -14
-22 0 -8 -4 -15 -9 -15 -6 0 -6 -12 0 -32 5 -18 9 -49 9 -68 0 -59 5 -62 135
-63 111 -1 119 1 136 22 13 16 19 39 19 74 0 32 9 68 24 101 56 117 66 144 66
184 0 22 5 53 12 69 6 15 12 30 12 33 3 13 50 90 56 90 3 0 -2 -46 -12 -102
-10 -57 -22 -136 -28 -177 -5 -41 -19 -122 -30 -179 -11 -58 -18 -108 -15
-111 6 -6 161 -8 265 -4 30 1 391 0 803 -3 l747 -6 0 335 0 335 -29 5 c-29 6
-61 31 -61 48 0 6 14 18 30 27 43 24 52 63 57 255 l5 167 -36 48 c-19 26 -39
52 -44 57 -4 6 -19 25 -32 43 -26 34 -55 44 -46 15 3 -10 8 -30 12 -46 3 -15
23 -40 43 -56 29 -23 42 -44 55 -89 27 -89 14 -96 -28 -14 -20 39 -38 72 -41
72 -2 0 -11 -13 -20 -30 -11 -21 -23 -30 -40 -30 -21 0 -31 14 -69 90 -25 50
-53 101 -64 115 l-19 24 -23 -25 c-33 -35 -44 -18 -50 77 l-5 81 -95 -117
c-90 -112 -268 -296 -293 -304 -9 -3 -9 -1 0 9 6 7 9 19 6 26 -3 8 -1 14 5 14
5 0 7 11 4 25 -3 17 4 38 22 63 29 43 31 54 14 82 -11 17 -16 11 -46 -58 -18
-42 -54 -145 -78 -230 -61 -211 -93 -283 -187 -428 -41 -62 -73 -81 -64 -37 2
12 0 23 -4 23 -5 0 -9 36 -9 80 0 61 3 80 14 80 7 0 18 12 24 28 22 55 52 152
52 167 0 9 9 34 19 56 11 21 22 57 26 78 l6 39 -55 12 c-31 6 -58 16 -62 21
-15 25 -4 80 29 152 21 43 40 90 43 105 4 15 15 39 25 54 11 14 19 29 19 33 0
4 10 21 23 38 12 18 30 50 40 72 l17 40 -30 -35 c-16 -19 -39 -53 -51 -75 -12
-22 -27 -49 -33 -60 -6 -11 -21 -34 -32 -50 -37 -51 -53 -91 -79 -186 -16 -62
-32 -99 -50 -116 -14 -14 -25 -32 -25 -40 0 -23 -76 -116 -127 -155 -26 -20
-78 -67 -115 -103 -37 -36 -75 -65 -83 -65 -9 0 -25 -8 -36 -18 -10 -10 -29
-18 -42 -16 -12 1 -28 3 -36 3 -7 1 -11 7 -7 16 7 18 -17 20 -36 3 -14 -14
-34 -24 -110 -57 -80 -35 -67 -23 32 32 109 59 121 68 199 134 132 112 259
256 322 363 l21 35 -23 -26 c-13 -14 -40 -45 -59 -69 -19 -24 -37 -46 -40 -49
-3 -3 -23 -20 -45 -36 -52 -39 -92 -81 -133 -139 -27 -39 -37 -47 -60 -44 -19
2 -28 9 -30 25 -5 31 -17 29 -38 -6 -10 -17 -21 -28 -25 -25 -9 5 -89 -45 -89
-55 0 -10 -60 -44 -66 -38 -11 11 25 59 122 163 180 193 280 332 343 474 18
41 52 116 76 165 24 50 46 104 49 120 l6 30 -16 -30 c-9 -16 -25 -40 -35 -53
-10 -13 -25 -47 -35 -75 -40 -125 -171 -363 -233 -426 -9 -9 -34 -39 -56 -66
-46 -56 -166 -175 -177 -175 -5 0 -8 -7 -8 -15 0 -8 -3 -15 -7 -16 -34 -3 -59
-12 -82 -29 -99 -77 -131 -100 -136 -100 -2 0 -30 -16 -61 -36 -31 -20 -61
-37 -68 -38 -6 -1 -24 -9 -41 -18 -50 -26 -195 -68 -255 -74 -51 -4 -48 -3 50
29 119 37 124 40 240 115 103 67 206 150 281 229 77 79 207 218 255 273 56 63
217 290 211 297 -5 4 -144 -102 -167 -127 -33 -35 -196 -113 -304 -144 -99
-29 -241 -35 -383 -15 -76 10 -199 62 -318 134 -67 40 -335 311 -335 339 0 6
-14 29 -30 50 -17 22 -30 48 -30 57 0 10 -11 31 -25 46 -14 15 -29 33 -34 39
-5 7 -30 52 -55 100 -24 49 -56 101 -69 115 -23 24 -44 105 -40 149 1 8 -4 18
-10 23 -9 6 -9 10 1 14 10 4 9 9 -5 20 -10 8 -12 12 -5 8 6 -3 12 -2 12 4 0 5
-5 11 -11 13 -9 3 -13 21 -18 81 -1 4 -5 7 -11 7 -5 0 -10 -17 -10 -37z m-560
-1253 c0 -5 -2 -10 -4 -10 -3 0 -8 5 -11 10 -3 6 -1 10 4 10 6 0 11 -4 11 -10z
m3720 -89 c5 -11 22 -26 38 -33 22 -11 28 -21 30 -56 4 -55 -18 -57 -43 -3 -9
22 -28 49 -41 60 -13 12 -24 28 -24 36 0 22 27 19 40 -4z m-1900 -21 c-14 -11
-36 -23 -50 -26 -14 -4 -31 -12 -39 -18 -12 -9 -12 -8 0 12 8 12 19 22 26 22
7 0 13 4 13 9 0 5 9 7 20 4 11 -3 20 0 20 6 0 6 8 11 18 11 14 0 12 -4 -8 -20z
m822 -83 c3 -39 7 -159 7 -265 1 -193 14 -362 32 -410 12 -32 4 -40 -19 -18
-49 43 -91 174 -112 346 -14 113 -13 150 10 242 11 42 20 87 20 101 0 13 7 41
16 62 21 52 36 33 46 -58z m-1103 17 c10 -9 -35 -3 -49 6 -11 8 -7 9 15 4 17
-4 32 -8 34 -10z m58 0 c-3 -3 -12 -4 -19 -1 -8 3 -5 6 6 6 11 1 17 -2 13 -5z
m495 -306 c-9 -9 -15 -9 -24 0 -9 9 -7 12 12 12 19 0 21 -3 12 -12z m318 -22
c0 -17 -5 -83 -10 -146 -6 -63 -13 -173 -15 -245 -3 -72 -6 -141 -8 -154 -5
-32 -31 -50 -54 -35 -17 10 -21 26 -26 104 -2 25 -7 62 -11 82 -7 31 -5 39 8
44 11 4 15 13 10 26 -3 12 -1 24 6 28 7 4 13 26 13 49 0 23 4 44 8 47 12 7 11
44 -1 44 -15 0 -11 42 5 64 8 11 15 28 15 38 0 28 31 85 46 85 9 0 14 -11 14
-31z m-505 -6 c-3 -5 -12 -10 -18 -10 -7 0 -6 4 3 10 19 12 23 12 15 0z m-50
-20 c-27 -12 -43 -12 -25 0 8 5 22 9 30 9 10 0 8 -3 -5 -9z m-312 -67 c-7 -2
-19 -2 -25 0 -7 3 -2 5 12 5 14 0 19 -2 13 -5z m-76 -9 c-3 -3 -12 -4 -19 -1
-8 3 -5 6 6 6 11 1 17 -2 13 -5z"/>
<path d="M2705 2323 c4 -69 4 -70 20 -49 28 37 16 96 -20 96 -1 0 -2 -21 0
-47z"/>
<path d="M2790 2032 c0 -4 -18 -28 -40 -52 -52 -59 -51 -78 3 -37 35 26 43 38
43 65 1 17 -1 32 -3 32 -1 0 -3 -4 -3 -8z"/>
<path d="M2855 1828 c-40 -14 -75 -47 -75 -70 0 -24 -41 -68 -47 -51 -9 25
-68 -17 -91 -65 -13 -26 -32 -60 -42 -77 -11 -16 -29 -48 -41 -70 -41 -76 -80
-125 -112 -142 -55 -28 -10 -27 67 2 78 30 107 54 99 85 -4 15 12 37 67 89 40
39 92 80 115 92 28 15 48 35 58 58 18 39 15 51 -14 51 -10 0 -19 4 -19 9 0 10
53 19 134 24 56 2 82 26 56 51 -20 20 -117 29 -155 14z"/>
<path d="M3993 1503 c-18 -12 -20 -19 -12 -34 14 -27 35 -23 55 11 10 16 25
31 33 33 9 3 0 5 -19 5 -19 1 -45 -6 -57 -15z"/>
<path d="M348 1373 c-26 -30 -37 -57 -44 -111 -6 -49 -6 -51 16 -45 29 8 43
44 23 60 -14 11 -11 17 21 53 20 22 36 45 36 50 0 16 -36 11 -52 -7z"/>
<path d="M3583 1373 c-3 -10 -8 -21 -10 -25 -2 -5 7 -8 20 -8 20 0 24 4 20 20
-8 28 -22 35 -30 13z"/>
<path d="M2375 1320 c-8 -13 5 -13 25 0 13 8 13 10 -2 10 -9 0 -20 -4 -23 -10z"/>
<path d="M1794 779 c-7 -12 32 -48 53 -49 18 0 22 14 10 31 -16 22 -54 33 -63
18z"/>
</g>
</svg>
