<svg width="240" height="260" viewBox="0 0 240 260" fill="none" xmlns="http://www.w3.org/2000/svg">
  <rect x="70" y="20" width="100" height="100" rx="18" fill="#F6C7A9"/>
  <rect x="55" y="75" width="130" height="28" fill="#F6C7A9"/>
  <rect x="78" y="48" width="24" height="14" fill="#17345F"/>
  <rect x="138" y="48" width="24" height="14" fill="#17345F"/>
  <rect x="106" y="76" width="28" height="10" fill="#17345F"/>
  <rect x="75" y="15" width="90" height="28" fill="#6C63FF"/>
  <rect x="62" y="35" width="116" height="18" fill="#6C63FF"/>
  <rect x="84" y="120" width="72" height="24" fill="#F6C7A9"/>
  <rect x="52" y="140" width="136" height="86" rx="10" fill="#6C63FF"/>
  <rect x="72" y="156" width="96" height="14" fill="#F7B731"/>
  <rect x="78" y="182" width="84" height="10" fill="#FDF4D5"/>
  <rect x="94" y="204" width="52" height="10" fill="#FDF4D5"/>
  <rect x="42" y="152" width="18" height="62" fill="#F6C7A9"/>
  <rect x="180" y="152" width="18" height="62" fill="#F6C7A9"/>
  <rect x="74" y="226" width="30" height="22" fill="#17345F"/>
  <rect x="136" y="226" width="30" height="22" fill="#17345F"/>
</svg>
